<?xml version="1.0" encoding="UTF-8" standalone="no"?>
<svg
   xmlns:dc="http://purl.org/dc/elements/1.1/"
   xmlns:cc="http://creativecommons.org/ns#"
   xmlns:rdf="http://www.w3.org/1999/02/22-rdf-syntax-ns#"
   xmlns:svg="http://www.w3.org/2000/svg"
   xmlns="http://www.w3.org/2000/svg"
   xmlns:sodipodi="http://sodipodi.sourceforge.net/DTD/sodipodi-0.dtd"
   xmlns:inkscape="http://www.inkscape.org/namespaces/inkscape"
   width="1000"
   height="1400"
   viewBox="0 0 1000 1400"
   version="1.1"
   id="svg12"
   sodipodi:docname="Afrodiseas loading photo.svg"
   style="fill:none"
   inkscape:export-filename="C:\Users\Franklin\Desktop\NH\Bag Afrodiseas.png"
   inkscape:export-xdpi="299.55167"
   inkscape:export-ydpi="299.55167"
   inkscape:version="0.92.4 (5da689c313, 2019-01-14)">
  <metadata
     id="metadata18">
    <rdf:RDF>
      <cc:Work
         rdf:about="">
        <dc:format>image/svg+xml</dc:format>
        <dc:type
           rdf:resource="http://purl.org/dc/dcmitype/StillImage" />
        <dc:title></dc:title>
      </cc:Work>
    </rdf:RDF>
  </metadata>
  <defs
     id="defs16" />
  <sodipodi:namedview
     pagecolor="#f0f0f0"
     bordercolor="#666666"
     borderopacity="1"
     objecttolerance="10"
     gridtolerance="10"
     guidetolerance="10"
     inkscape:pageopacity="0"
     inkscape:pageshadow="2"
     inkscape:window-width="1920"
     inkscape:window-height="1017"
     id="namedview14"
     showgrid="false"
     inkscape:zoom="0.18238022"
     inkscape:cx="831.88612"
     inkscape:cy="227.06465"
     inkscape:window-x="-8"
     inkscape:window-y="-8"
     inkscape:window-maximized="1"
     inkscape:current-layer="svg12" />
  <g
     id="g913">
    <g
       inkscape:export-ydpi="96"
       inkscape:export-xdpi="96"
       transform="matrix(0.24576271,0,0,0.24576271,340.99181,514.94068)"
       id="g833">
      <path
         d="m 647,106 c -91.925,1e-5 -180.086,39.0492 -245.087,108.557 -65.001,69.508 -101.518,163.781 -101.518,262.08 0,98.3 36.517,192.573 101.518,262.081 65.001,69.508 153.162,108.557 245.087,108.557 91.926,0 180.086,-39.049 245.087,-108.557 65.001,-69.508 101.519,-163.781 101.519,-262.081 0,-98.299 -36.518,-192.572 -101.519,-262.08 C 827.086,145.0492 738.926,106.00001 647,106 Z m 0,42.588 c 37.568,0 74.767,8.4851 109.475,24.9711 34.708,16.486 66.245,40.6499 92.809,71.1119 26.564,30.462 47.636,66.626 62.013,106.427 14.376,39.801 21.776,82.459 21.776,125.539 0,43.081 -7.4,85.739 -21.776,125.54 -14.377,39.8 -35.449,75.964 -62.013,106.427 -26.564,30.462 -58.101,54.626 -92.809,71.112 -34.708,16.486 -71.907,24.971 -109.475,24.971 -37.567,0 -74.767,-8.485 -109.475,-24.971 -34.708,-16.486 -66.244,-40.65 -92.809,-71.112 -26.564,-30.463 -47.636,-66.627 -62.012,-106.427 -14.377,-39.801 -21.776,-82.459 -21.776,-125.54 0,-43.08 7.399,-85.738 21.776,-125.539 14.376,-39.801 35.448,-75.965 62.012,-106.427 26.565,-30.462 58.101,-54.6259 92.809,-71.1119 C 572.233,157.0731 609.433,148.588 647,148.588 Z"
         id="path2"
         inkscape:connector-curvature="0"
         style="fill:#4d4d4d" />
      <path
         d="M 145.215,468.595 H 1148.78 c 0,199.271 326.74,931.205 0,931.405 H 145.215 c -326.734,-0.2 0,-732.134 0,-931.405 z"
         id="path4"
         inkscape:connector-curvature="0"
         style="fill:#4d4d4d" />
      <path
         d="m 647,1238.77 c 179.121,0 324.328,-136.32 324.328,-304.473 C 971.328,766.144 826.121,629.83 647,629.83 c -179.121,0 -324.328,136.314 -324.328,304.467 0,168.153 145.207,304.473 324.328,304.473 z"
         id="path6"
         inkscape:connector-curvature="0"
         style="fill:#cccccc" />
      <path
         d="m 591.972,853.261 -31.295,29.378 c -25.088,23.552 -25.088,61.738 0,85.29 l 128.386,120.524 c 25.088,23.547 65.765,23.547 90.853,0 l 31.294,-29.378 c 25.089,-23.552 25.088,-61.738 0,-85.29 L 682.824,853.261 c -25.088,-23.552 -65.764,-23.552 -90.852,0 z"
         id="path8"
         inkscape:connector-curvature="0"
         style="fill:#4d4d4d" />
      <path
         d="m 429.44,859.604 c -25.166,23.625 -25.166,61.664 0,85.289 43.459,40.798 156.263,85.415 176.974,65.972 L 728.561,896.198 c 20.383,-19.135 -25.332,-122.012 -68.213,-164.154 -0.689,-0.677 -1.375,-1.339 -2.062,-1.984 -25.166,-23.625 -65.686,-23.625 -90.852,0 z"
         id="path10"
         inkscape:connector-curvature="0"
         style="fill:#ffc7aa" />
    </g>
    <g
       id="flowRoot837"
       style="font-style:normal;font-weight:normal;font-size:40px;line-height:1.25;font-family:sans-serif;letter-spacing:0px;word-spacing:0px;fill:#000000;fill-opacity:1;stroke:none"
       transform="translate(140.7832,-52.088983)"
       aria-label="Cargando...">
      <path
         id="path871"
         style=""
         d="m 268.99219,1031.3799 q -1.07422,0.4688 -1.95313,0.8789 -0.85937,0.4102 -2.26562,0.8594 -1.19141,0.3711 -2.59766,0.625 -1.38672,0.2735 -3.06641,0.2735 -3.16406,0 -5.76171,-0.879 -2.57813,-0.8984 -4.49219,-2.7929 -1.875,-1.8555 -2.92969,-4.7071 -1.05469,-2.871 -1.05469,-6.6601 0,-3.5938 1.01563,-6.4258 1.01562,-2.832 2.92969,-4.7851 1.85546,-1.8946 4.47265,-2.8907 2.63672,-0.9961 5.83985,-0.9961 2.34375,0 4.66796,0.5664 2.34375,0.5664 5.19532,1.9922 v 4.5899 h -0.29297 q -2.40235,-2.0117 -4.76563,-2.9297 -2.36328,-0.918 -5.05859,-0.918 -2.20703,0 -3.98438,0.7227 -1.75781,0.7031 -3.14453,2.207 -1.34765,1.4648 -2.10937,3.7109 -0.74219,2.2266 -0.74219,5.1563 0,3.0664 0.82031,5.2734 0.83985,2.2071 2.14844,3.5938 1.36719,1.4453 3.18359,2.1484 1.83594,0.6836 3.86719,0.6836 2.79297,0 5.23438,-0.957 2.4414,-0.9571 4.57031,-2.8711 h 0.27344 z" />
      <path
         id="path873"
         style=""
         d="m 291.16016,1033.4893 h -3.65235 v -2.3242 q -0.48828,0.332 -1.32812,0.9375 -0.82032,0.5859 -1.60157,0.9375 -0.91796,0.4492 -2.10937,0.7422 -1.19141,0.3125 -2.79297,0.3125 -2.94922,0 -5,-1.9531 -2.05078,-1.9532 -2.05078,-4.9805 0,-2.4805 1.05469,-4.0039 1.07422,-1.543 3.04687,-2.4219 1.99219,-0.8789 4.78516,-1.1914 2.79297,-0.3125 5.99609,-0.4688 v -0.5664 q 0,-1.25 -0.44922,-2.0703 -0.42968,-0.8203 -1.25,-1.289 -0.78125,-0.4493 -1.875,-0.6055 -1.09375,-0.1563 -2.28515,-0.1563 -1.44532,0 -3.22266,0.3907 -1.77734,0.3711 -3.67187,1.0937 h -0.19532 v -3.7304 q 1.07422,-0.293 3.10547,-0.6446 2.03125,-0.3515 4.00391,-0.3515 2.30469,0 4.0039,0.3906 1.71875,0.3711 2.96875,1.289 1.23047,0.8985 1.875,2.3243 0.64454,1.4257 0.64454,3.5351 z m -3.65235,-5.3711 v -6.0742 q -1.67969,0.098 -3.96484,0.293 -2.26563,0.1953 -3.59375,0.5664 -1.58203,0.4492 -2.5586,1.4062 -0.97656,0.9375 -0.97656,2.5977 0,1.875 1.13281,2.832 1.13282,0.9375 3.45704,0.9375 1.93359,0 3.53515,-0.7422 1.60156,-0.7617 2.96875,-1.8164 z" />
      <path
         id="path875"
         style=""
         d="m 311.88281,1015.6768 h -0.19531 q -0.82031,-0.1953 -1.60156,-0.2734 -0.76172,-0.098 -1.81641,-0.098 -1.69922,0 -3.28125,0.7617 -1.58203,0.7422 -3.04687,1.9336 v 15.4883 h -3.67188 v -21.8164 h 3.67188 v 3.2227 q 2.1875,-1.7579 3.84765,-2.4805 1.67969,-0.7422 3.41797,-0.7422 0.95703,0 1.38672,0.059 0.42969,0.039 1.28906,0.1758 z" />
      <path
         id="path877"
         style=""
         d="m 333.07422,1031.0088 q 0,5.5469 -2.51953,8.1446 -2.51953,2.5976 -7.75391,2.5976 -1.73828,0 -3.39844,-0.2539 -1.64062,-0.2344 -3.24218,-0.6836 v -3.75 h 0.19531 q 0.89844,0.3516 2.85156,0.8594 1.95313,0.5273 3.90625,0.5273 1.875,0 3.10547,-0.4492 1.23047,-0.4492 1.91406,-1.25 0.6836,-0.7617 0.97656,-1.8359 0.29297,-1.0742 0.29297,-2.4024 v -1.9921 q -1.66015,1.3281 -3.18359,1.9921 -1.50391,0.6446 -3.84766,0.6446 -3.90625,0 -6.21093,-2.8125 -2.28516,-2.8321 -2.28516,-7.9688 0,-2.8125 0.78125,-4.8437 0.80078,-2.0508 2.16797,-3.5352 1.26953,-1.3867 3.08594,-2.1484 1.8164,-0.7813 3.61328,-0.7813 1.89453,0 3.16406,0.3907 1.28906,0.3711 2.71484,1.1523 l 0.23438,-0.9375 h 3.4375 z m -3.67188,-3.5156 v -11.8945 q -1.46484,-0.6641 -2.73437,-0.9375 -1.25,-0.293 -2.5,-0.293 -3.02735,0 -4.76563,2.0313 -1.73828,2.0312 -1.73828,5.8984 0,3.6719 1.28906,5.5664 1.28907,1.8945 4.27735,1.8945 1.60156,0 3.20312,-0.6054 1.6211,-0.625 2.96875,-1.6602 z" />
      <path
         id="path879"
         style=""
         d="m 357.25391,1033.4893 h -3.65235 v -2.3242 q -0.48828,0.332 -1.32812,0.9375 -0.82032,0.5859 -1.60157,0.9375 -0.91796,0.4492 -2.10937,0.7422 -1.19141,0.3125 -2.79297,0.3125 -2.94922,0 -5,-1.9531 -2.05078,-1.9532 -2.05078,-4.9805 0,-2.4805 1.05469,-4.0039 1.07422,-1.543 3.04687,-2.4219 1.99219,-0.8789 4.78516,-1.1914 2.79297,-0.3125 5.99609,-0.4688 v -0.5664 q 0,-1.25 -0.44922,-2.0703 -0.42968,-0.8203 -1.25,-1.289 -0.78125,-0.4493 -1.875,-0.6055 -1.09375,-0.1563 -2.28515,-0.1563 -1.44532,0 -3.22266,0.3907 -1.77734,0.3711 -3.67187,1.0937 h -0.19532 v -3.7304 q 1.07422,-0.293 3.10547,-0.6446 2.03125,-0.3515 4.00391,-0.3515 2.30469,0 4.0039,0.3906 1.71875,0.3711 2.96875,1.289 1.23047,0.8985 1.875,2.3243 0.64454,1.4257 0.64454,3.5351 z m -3.65235,-5.3711 v -6.0742 q -1.67969,0.098 -3.96484,0.293 -2.26563,0.1953 -3.59375,0.5664 -1.58203,0.4492 -2.5586,1.4062 -0.97656,0.9375 -0.97656,2.5977 0,1.875 1.13281,2.832 1.13282,0.9375 3.45704,0.9375 1.93359,0 3.53515,-0.7422 1.60156,-0.7617 2.96875,-1.8164 z" />
      <path
         id="path881"
         style=""
         d="m 382.60547,1033.4893 h -3.67188 v -12.4219 q 0,-1.5039 -0.17578,-2.8125 -0.17578,-1.3281 -0.64453,-2.0703 -0.48828,-0.8203 -1.40625,-1.2109 -0.91797,-0.4102 -2.38281,-0.4102 -1.50391,0 -3.14453,0.7422 -1.64063,0.7422 -3.14453,1.8945 v 16.2891 h -3.67188 v -21.8164 h 3.67188 v 2.4219 q 1.71875,-1.4258 3.55468,-2.2266 1.83594,-0.8008 3.76953,-0.8008 3.53516,0 5.39063,2.1289 1.85547,2.1289 1.85547,6.1329 z" />
      <path
         id="path883"
         style=""
         d="m 407.37109,1033.4893 h -3.67187 v -2.2851 q -1.58203,1.3671 -3.30078,2.1289 -1.71875,0.7617 -3.73047,0.7617 -3.90625,0 -6.21094,-3.0078 -2.28516,-3.0078 -2.28516,-8.3399 0,-2.7734 0.78125,-4.9414 0.80079,-2.168 2.14844,-3.6914 1.32813,-1.4844 3.08594,-2.2656 1.77734,-0.7813 3.67187,-0.7813 1.71875,0 3.04688,0.3711 1.32812,0.3516 2.79297,1.1133 v -9.4531 h 3.67187 z m -3.67187,-5.3711 v -12.5195 q -1.48438,-0.6641 -2.65625,-0.918 -1.17188,-0.2539 -2.5586,-0.2539 -3.08593,0 -4.80468,2.1484 -1.71875,2.1485 -1.71875,6.0938 0,3.8867 1.32812,5.918 1.32813,2.0117 4.25781,2.0117 1.5625,0 3.16407,-0.6836 1.60156,-0.7031 2.98828,-1.7969 z" />
      <path
         id="path885"
         style=""
         d="m 433.19141,1022.5909 q 0,5.332 -2.73438,8.4179 -2.73437,3.086 -7.32422,3.086 -4.6289,0 -7.36328,-3.086 -2.71484,-3.0859 -2.71484,-8.4179 0,-5.3321 2.71484,-8.418 2.73438,-3.1055 7.36328,-3.1055 4.58985,0 7.32422,3.1055 2.73438,3.0859 2.73438,8.418 z m -3.78907,0 q 0,-4.2383 -1.66015,-6.2891 -1.66016,-2.0703 -4.60938,-2.0703 -2.98828,0 -4.64844,2.0703 -1.64062,2.0508 -1.64062,6.2891 0,4.1015 1.66016,6.2304 1.66015,2.1094 4.6289,2.1094 2.92969,0 4.58985,-2.0898 1.67968,-2.1094 1.67968,-6.25 z" />
      <path
         id="path887"
         style=""
         d="m 444.5,1033.4893 h -4.66797 v -5.5664 H 444.5 Z" />
      <path
         id="path889"
         style=""
         d="m 459.03125,1033.4893 h -4.66797 v -5.5664 h 4.66797 z" />
      <path
         id="path891"
         style=""
         d="m 473.5625,1033.4893 h -4.66797 v -5.5664 h 4.66797 z" />
    </g>
    <rect
       inkscape:export-ydpi="96"
       inkscape:export-xdpi="96"
       y="0"
       x="0"
       height="1400"
       width="1000"
       id="rect845"
       style="opacity:0.44100001;fill:#f0f0f0;fill-opacity:0;stroke:none;stroke-width:1.16810727;stroke-opacity:0" />
  </g>
</svg>
